<?xml version="1.0" standalone="yes"?>
<svg width="53" height="49">
<path style="fill:#fefefe; stroke:none;" d="M0 0L0 49L9 49C9.82285 38.0849 0.636793 30.2332 3.61265 19C9.53657 -3.36134 39.0325 -4.09324 48.1998 16C53.7417 28.1469 43.1034 37.1245 44 49L53 49L53 0L0 0z"/>
<path style="fill:#9ed0d1; stroke:none;" d="M10 43L11 43C13.3486 38.5106 17.1411 37.4274 22 37C21.3764 28.0182 9.02044 16.6662 21.0548 9.41358C23.4938 7.9437 26.3552 7.0261 29 6L39 12L31 37C35.7901 37.6487 39.6512 38.5209 42 43C44.9911 39.8742 47.4763 36.1292 48.892 32C58.5768 3.75203 14.9233 -12.0039 4.27238 16C2.8478 19.7456 2.71608 24.037 3.10494 28C3.6572 33.6283 7.16903 38.2973 10 43z"/>
<path style="fill:#0e101d; stroke:none;" d="M16 22L19 17L30 19L29 16L35 22L36 22L39 12L29 6C19.5847 8.90149 16.0276 12.0042 16 22z"/>
<path style="fill:#45585f; stroke:none;" d="M22.6667 8.33333L23.3333 8.66667L22.6667 8.33333z"/>
<path style="fill:#815636; stroke:none;" d="M23 16L21 17L21 18L23 16z"/>
<path style="fill:#f09d4f; stroke:none;" d="M29 16L30 19L20 17L18 22L16 20L15 20L22 37L31 37L37 21L33 16L29 16z"/>
<path style="fill:#9a673c; stroke:none;" d="M19.3333 17.6667L19.6667 18.3333L19.3333 17.6667z"/>
<path style="fill:#734f35; stroke:none;" d="M33.3333 17.6667L33.6667 18.3333L33.3333 17.6667z"/>
<path style="fill:#1d6caf; stroke:none;" d="M9 49L25 49C24.4915 45.9988 23.8674 39.9976 21.2616 38.0424C14.3831 32.8813 9.68521 44.3642 9 49z"/>
<path style="fill:#fefefe; stroke:none;" d="M22 37L25 49L28 49L31 37L22 37z"/>
<path style="fill:#1d6caf; stroke:none;" d="M28 49L44 49C41.8704 34.5922 30.0848 34.8304 28 49z"/>
<path style="fill:#85b0d3; stroke:none;" d="M23.3333 42.6667L23.6667 43.3333L23.3333 42.6667z"/>
<path style="fill:#88a6c8; stroke:none;" d="M9.33333 44.6667L9.66667 45.3333L9.33333 44.6667z"/>
<path style="fill:#87a5c9; stroke:none;" d="M43.3333 44.6667L43.6667 45.3333L43.3333 44.6667z"/>
</svg>
