<?xml version="1.0" standalone="no"?>
<!DOCTYPE svg PUBLIC "-//W3C//DTD SVG 20010904//EN"
 "http://www.w3.org/TR/2001/REC-SVG-20010904/DTD/svg10.dtd">
<svg version="1.0" xmlns="http://www.w3.org/2000/svg"
 width="1200.000000pt" height="1200.000000pt" viewBox="0 0 1200.000000 1200.000000"
 preserveAspectRatio="xMidYMid meet">

<g transform="translate(0.000000,1200.000000) scale(0.100000,-0.100000)"
fill="#000000" stroke="none">
<path d="M5740 11914 c-170 -12 -447 -49 -600 -80 -439 -88 -685 -224 -799
-443 -54 -105 -73 -185 -74 -311 0 -58 -1 -172 -1 -255 -4 -658 0 -842 22
-1040 12 -110 31 -308 42 -440 23 -265 32 -317 90 -527 22 -79 51 -188 65
-243 31 -128 48 -176 79 -222 44 -64 -10 -72 -79 -12 -43 38 -70 119 -62 188
l4 46 -15 -35 c-8 -19 -17 -66 -19 -105 -4 -59 -1 -77 19 -115 25 -49 84 -90
130 -90 31 0 33 -5 43 -110 10 -106 54 -308 91 -419 39 -119 136 -311 193
-388 l39 -51 -83 -85 c-95 -96 -106 -123 -87 -217 17 -81 15 -96 -18 -133 -37
-43 -102 -77 -400 -210 -374 -168 -1098 -503 -1127 -522 -24 -16 -25 -20 -20
-81 6 -63 6 -65 -21 -75 -75 -29 -74 -29 -111 73 -36 97 -148 324 -241 488
-90 159 -157 215 -287 240 -86 17 -148 2 -443 -111 -194 -74 -240 -95 -240
-110 0 -11 2 -19 4 -19 3 0 110 29 238 65 128 36 241 65 250 65 18 0 44 -37
33 -48 -3 -3 -116 -39 -251 -78 -135 -39 -248 -74 -251 -78 -19 -18 26 -8 262
60 244 71 260 75 272 58 19 -26 16 -32 -19 -42 -243 -69 -465 -136 -473 -143
-19 -18 26 -8 269 63 239 69 249 71 262 53 8 -10 14 -24 14 -30 0 -6 -115 -45
-255 -85 -140 -41 -255 -78 -255 -82 0 -14 17 -10 229 53 113 33 227 67 254
74 l47 14 16 -30 c8 -17 14 -32 12 -33 -2 -1 -115 -35 -253 -75 -137 -39 -251
-74 -254 -77 -19 -19 40 -6 251 56 133 39 249 73 255 75 14 5 49 -42 40 -52
-4 -3 -117 -38 -252 -78 -135 -40 -248 -75 -252 -79 -19 -19 26 -8 257 59 139
41 256 75 260 75 4 0 12 -11 18 -24 9 -21 8 -26 -6 -30 -9 -3 -120 -35 -247
-71 -235 -69 -264 -79 -249 -87 5 -3 122 28 259 68 138 41 255 74 261 74 10 0
39 -49 32 -55 -2 -1 -117 -35 -255 -76 -139 -40 -253 -77 -253 -81 0 -13 11
-11 270 66 241 71 251 73 261 54 6 -11 8 -22 6 -25 -3 -3 -117 -37 -253 -77
-136 -39 -249 -77 -251 -83 -3 -8 16 -6 59 6 35 10 152 45 261 76 166 49 200
56 208 44 5 -8 9 -18 9 -24 0 -5 -114 -43 -252 -83 -139 -40 -254 -75 -257
-77 -19 -20 39 -7 251 55 133 39 250 73 259 76 11 3 20 -5 29 -26 7 -17 11
-33 8 -35 -2 -2 -117 -37 -256 -77 -148 -43 -252 -78 -252 -85 0 -9 8 -9 28
-3 63 22 477 140 487 140 18 0 38 -50 22 -55 -6 -2 -122 -36 -257 -75 -135
-40 -247 -74 -249 -76 -19 -19 40 -5 250 56 134 38 251 73 260 75 17 6 46 -43
32 -55 -4 -3 -122 -39 -261 -80 -138 -40 -252 -77 -252 -82 0 -12 -3 -13 270
67 255 75 269 77 270 38 0 -7 -17 -17 -37 -23 -235 -65 -467 -138 -471 -148
-2 -8 10 -8 45 3 191 58 474 138 477 134 2 -2 6 -13 10 -24 5 -18 -15 -26
-254 -95 -143 -41 -260 -78 -260 -82 0 -14 21 -9 277 66 l252 73 6 -25 c3 -14
2 -28 -2 -32 -4 -4 -118 -40 -252 -79 -134 -39 -246 -73 -249 -76 -20 -20 36
-7 259 59 140 41 257 71 261 68 4 -4 9 -18 13 -32 6 -25 5 -26 -247 -99 -231
-67 -297 -91 -258 -91 8 0 127 32 263 72 208 60 250 69 258 57 5 -8 9 -19 9
-25 0 -5 -114 -43 -252 -83 -139 -41 -255 -75 -257 -77 -2 -2 -1 -7 2 -10 4
-4 119 26 257 66 137 40 252 71 255 68 3 -3 7 -18 8 -34 l2 -29 -257 -74
c-142 -42 -254 -79 -249 -84 4 -4 116 23 247 62 131 38 239 69 240 68 1 -1
-10 -17 -25 -34 -25 -30 -47 -39 -237 -94 -115 -33 -211 -63 -213 -65 -19 -19
35 -8 198 40 105 31 194 56 197 56 3 0 -3 -13 -13 -30 -19 -33 -15 -31 -217
-90 -77 -22 -142 -42 -144 -45 -22 -22 84 3 302 71 17 6 17 3 -5 -35 -21 -37
-29 -43 -93 -62 -39 -11 -96 -28 -126 -37 -55 -16 -78 -28 -69 -36 2 -3 56 11
119 29 63 19 116 32 118 30 2 -2 -5 -17 -17 -33 -20 -29 -71 -50 -184 -78 -16
-3 -25 -10 -20 -15 5 -5 41 0 82 12 40 11 75 18 78 15 3 -3 -3 -20 -14 -38
-15 -25 -31 -36 -73 -48 -29 -8 -55 -21 -57 -27 -3 -9 8 -9 44 2 26 8 49 15
51 15 1 0 -7 -17 -17 -39 -13 -24 -30 -41 -46 -45 -14 -4 -25 -11 -25 -17 0
-6 7 -9 15 -5 19 7 19 -7 1 -47 -24 -53 -42 -118 -130 -462 -47 -181 -117
-442 -156 -580 -38 -137 -70 -257 -70 -265 0 -8 18 -29 39 -47 l39 -32 47 187
c72 288 261 982 268 982 1 0 17 -4 35 -9 27 -8 34 -7 42 9 12 23 79 63 139 85
34 12 47 12 58 3 8 -6 36 -57 63 -112 57 -121 104 -171 204 -219 187 -91 540
-166 891 -191 l80 -5 -50 17 c-108 37 -162 82 -266 218 -42 55 -53 63 -138 98
-70 29 -97 46 -111 68 -20 34 -54 157 -45 166 3 3 99 8 213 10 224 4 314 -5
346 -38 25 -24 15 -38 -59 -79 -46 -26 -105 -84 -105 -104 0 -3 23 10 51 29
67 45 176 79 197 62 23 -19 145 -206 199 -305 63 -116 287 -596 330 -706 18
-48 45 -127 58 -175 l24 -87 -1 77 c-1 43 1 79 3 80 2 1 24 -11 49 -28 75 -52
101 -62 439 -174 179 -59 353 -119 385 -134 56 -25 58 -27 42 -45 -9 -10 -54
-32 -99 -49 -80 -30 -88 -31 -352 -42 -148 -6 -367 -18 -485 -27 -356 -27
-743 -14 -1275 42 -126 13 -285 29 -353 35 -131 11 -145 15 -179 52 -23 25
-97 158 -108 196 -10 33 3 28 75 -30 51 -40 43 -30 -39 48 -57 54 -113 105
-123 112 -17 12 -18 24 -14 105 l5 92 -16 -78 c-11 -59 -18 -75 -28 -67 -13
11 -25 4 -25 -17 0 -8 23 -47 50 -88 28 -41 50 -76 50 -79 0 -3 -17 -13 -37
-21 -43 -18 -39 -24 41 -55 52 -21 63 -30 102 -92 24 -37 44 -73 44 -79 0 -7
-19 -9 -57 -5 -200 20 -199 20 -184 3 16 -21 73 -37 127 -37 54 0 60 -8 28
-41 l-26 -27 64 14 c34 7 96 16 136 20 62 6 72 5 72 -9 0 -9 -16 -28 -36 -43
-19 -15 -42 -40 -50 -56 -14 -27 -14 -32 1 -55 9 -13 15 -26 13 -28 -2 -1 -91
-17 -198 -34 -387 -63 -1210 -228 -1228 -246 -3 -3 18 -105 46 -228 29 -122
52 -229 52 -237 0 -12 -40 -25 -162 -54 -437 -103 -1400 -376 -1431 -405 -4
-4 12 -13 35 -20 138 -41 1076 -397 1097 -417 2 -2 -53 -79 -121 -171 -191
-257 -558 -787 -558 -805 0 -3 78 19 173 49 420 133 1002 288 1452 388 239 53
650 135 676 135 10 0 20 4 23 8 3 5 -14 114 -38 243 -24 129 -40 237 -37 240
8 8 442 79 721 118 891 124 1636 175 2565 175 915 0 1640 -49 2525 -170 276
-37 744 -115 754 -124 5 -5 -9 -109 -34 -245 -23 -130 -41 -237 -39 -239 2 -1
103 -22 224 -45 615 -118 1333 -299 1938 -489 86 -27 157 -48 157 -45 0 18
-451 665 -619 888 -33 44 -57 83 -53 87 21 21 709 287 1019 394 62 21 109 42
105 45 -9 8 -366 118 -627 193 -221 63 -583 158 -805 211 -85 21 -156 39 -157
40 -2 1 22 108 53 239 31 131 54 239 52 241 -5 5 -230 55 -448 100 -463 96
-914 172 -1407 239 l-183 25 -133 80 c-142 85 -210 147 -205 184 3 19 9 22 44
19 43 -2 345 -75 564 -136 69 -19 126 -33 128 -32 1 2 -51 24 -115 49 -133 51
-303 104 -443 137 -156 37 -165 41 -168 78 -3 27 1 32 23 38 96 24 479 -74
719 -183 258 -118 277 -125 302 -119 47 12 24 34 -83 81 -295 130 -676 253
-866 280 -26 4 -50 11 -53 16 -18 30 94 15 315 -42 63 -16 116 -27 118 -25 5
5 -175 54 -300 81 -60 13 -110 25 -112 27 -2 2 0 10 5 18 7 11 30 9 147 -15
76 -15 176 -39 222 -52 46 -13 85 -22 88 -20 6 6 -208 64 -334 91 -84 17 -109
26 -111 40 -3 15 2 17 45 10 26 -4 111 -22 188 -40 77 -18 151 -36 165 -39
l25 -6 -25 11 c-34 15 -339 90 -368 90 -22 0 -41 25 -28 37 7 7 142 -19 280
-53 54 -14 100 -23 102 -21 6 6 -143 45 -269 72 -105 22 -126 30 -116 40 8 8
288 -52 419 -90 259 -75 472 -164 645 -269 l110 -66 18 21 c10 12 14 26 10 30
-16 15 -294 150 -429 207 -248 106 -494 189 -747 252 -67 17 -127 33 -134 35
-20 7 -3 45 21 45 35 0 402 -95 536 -139 68 -22 126 -39 127 -37 7 7 -262 107
-458 171 -178 57 -206 69 -202 85 3 12 11 16 26 13 91 -21 302 -83 451 -133
99 -33 181 -58 183 -57 5 6 -383 162 -514 207 -114 40 -141 58 -113 75 15 10
382 -101 569 -171 35 -13 66 -23 68 -21 8 8 -309 140 -509 212 -67 25 -108 45
-108 53 0 17 18 14 220 -35 80 -19 197 -54 260 -77 163 -61 164 -61 70 -15
-104 51 -302 126 -433 165 -95 28 -98 29 -92 54 4 14 10 29 15 34 12 12 135
-20 350 -91 91 -30 172 -56 180 -59 54 -15 -195 95 -330 146 -91 35 -169 67
-174 71 -5 4 -6 14 -3 23 5 13 22 11 119 -15 62 -17 180 -52 263 -79 82 -27
150 -48 152 -46 5 5 -276 123 -393 165 -71 25 -110 44 -112 55 -8 38 13 32
483 -127 49 -17 -174 88 -305 144 -80 34 -147 63 -149 66 -3 2 0 8 6 14 13 13
79 -4 248 -61 65 -22 120 -38 122 -36 4 4 -241 120 -299 141 -48 18 -55 28
-39 54 12 18 47 9 204 -54 59 -24 107 -42 107 -40 0 6 -161 100 -232 136 -46
23 -58 33 -49 42 12 12 148 -17 245 -54 90 -33 58 -13 -85 55 -80 39 -137 72
-132 77 5 5 58 -6 123 -26 63 -19 117 -35 120 -35 3 0 -46 27 -107 61 -65 34
-113 66 -113 74 0 21 26 19 108 -9 40 -14 72 -23 72 -21 0 3 -25 21 -55 41
-30 21 -53 39 -51 41 2 3 26 -5 52 -16 26 -12 48 -20 50 -19 1 2 -26 26 -62
53 -35 28 -64 53 -64 56 0 3 54 151 120 329 66 177 120 325 119 329 0 3 -75
-142 -166 -324 l-166 -330 -21 145 -21 145 -39 -3 c-31 -3 -38 -1 -33 10 3 8
21 76 41 151 20 76 39 145 42 155 2 9 -31 -56 -75 -145 -44 -90 -83 -163 -88
-163 -18 0 -73 41 -73 55 0 8 43 454 95 991 52 537 95 981 95 985 0 16 16 9
101 -42 134 -81 264 -178 402 -298 70 -61 127 -106 127 -100 0 6 -57 68 -127
138 l-128 128 140 -67 c389 -186 639 -328 1018 -576 87 -57 156 -100 153 -95
-9 13 -542 367 -663 440 -100 60 -162 93 -623 339 -124 66 -300 161 -392 211
-193 106 -306 155 -471 205 -65 20 -131 43 -146 51 -28 14 -29 13 -35 -9 -3
-12 -125 -141 -272 -286 -260 -256 -267 -275 -29 -71 61 52 122 106 138 120
45 41 31 11 -41 -84 -92 -123 -339 -373 -544 -552 -93 -81 -173 -149 -178
-151 -4 -2 -11 50 -14 115 -14 251 -42 367 -107 435 -38 41 -39 41 -96 35
-112 -12 -424 -193 -655 -380 -60 -48 -108 -86 -108 -85 2 43 40 340 44 347 4
5 55 26 114 45 183 61 359 169 737 450 353 263 488 380 597 515 64 79 108 160
108 198 0 30 -34 50 -97 59 -50 6 -53 8 -53 35 0 27 2 29 43 29 97 -1 222 -41
234 -76 5 -14 -115 -200 -212 -329 -76 -101 -240 -271 -375 -389 -34 -30 -15
-18 50 30 143 107 364 330 475 481 50 68 93 117 97 110 10 -16 -7 -52 -76
-156 -97 -149 -171 -235 -368 -428 -101 -98 -172 -169 -158 -157 14 11 107 89
207 172 100 84 209 183 243 220 59 64 140 166 159 201 15 26 25 3 11 -24 -8
-14 -55 -80 -106 -148 -94 -125 -239 -280 -399 -426 l-90 -83 100 78 c223 173
385 326 479 451 37 49 56 59 56 29 0 -14 -123 -168 -229 -285 -41 -46 -129
-132 -196 -191 -66 -59 -133 -120 -150 -135 -50 -45 184 134 270 206 97 82
169 150 259 247 37 41 70 72 72 69 3 -2 -19 -40 -48 -83 -51 -78 -276 -312
-458 -478 l-85 -78 125 98 c241 189 357 295 449 411 32 40 51 47 51 19 0 -20
-174 -233 -273 -334 -51 -51 -130 -125 -177 -165 -112 -93 -127 -109 -60 -62
182 128 299 231 426 375 54 60 101 107 106 104 11 -7 11 -8 -17 98 -37 139
-62 271 -80 413 -8 70 -22 140 -30 155 -29 57 -127 101 -253 116 -33 3 -64 9
-69 13 -5 3 -20 143 -32 311 -12 168 -23 325 -25 350 -7 77 13 111 126 223
119 116 156 173 221 337 67 169 80 233 73 365 -12 249 -82 352 -231 343 -90
-6 -171 -47 -245 -124 -103 -107 -140 -212 -160 -459 -14 -169 -41 -275 -69
-275 -3 0 -2 57 3 127 16 223 -14 344 -153 621 -80 158 -137 299 -125 311 3 3
213 16 467 29 254 13 463 24 464 25 1 1 7 49 13 107 11 101 7 347 -9 525 l-6
70 -22 -35 c-33 -54 -69 -83 -103 -84 -16 -1 -30 -3 -30 -6 0 -3 7 -43 15 -89
8 -45 12 -87 9 -92 -3 -6 -27 21 -54 58 -26 37 -62 82 -80 98 l-32 30 7 -95 8
-95 -66 70 c-36 38 -69 66 -72 63 -4 -3 -2 -23 4 -45 13 -46 14 -123 2 -123
-5 0 -37 32 -71 70 -34 39 -66 70 -70 70 -4 0 -12 -35 -16 -77 -5 -42 -14 -78
-20 -80 -7 -2 -42 35 -80 82 -37 47 -69 85 -70 85 -2 0 -1 -27 3 -60 4 -40 2
-60 -5 -60 -21 0 -140 212 -166 298 -12 38 31 27 118 -29 l80 -51 -29 39 c-16
21 -40 53 -53 71 -14 18 -22 35 -19 39 7 7 184 -78 256 -123 l45 -27 -21 34
c-60 100 -73 128 -64 134 13 8 43 -8 111 -59 82 -62 84 -62 55 -6 -14 29 -24
54 -21 57 11 11 96 -20 146 -53 51 -34 53 -32 17 19 -10 16 -17 30 -14 33 6 7
82 -31 122 -60 17 -12 37 -26 45 -30 19 -10 -65 71 -110 107 -31 23 -32 27
-13 27 11 0 49 -9 82 -19 l61 -19 -56 62 c-41 45 -51 62 -39 64 15 3 44 -11
111 -54 46 -30 -53 92 -166 206 -264 262 -592 409 -958 427 -100 5 -112 8 -98
21 11 11 53 16 183 20 l168 6 -95 13 c-94 12 -603 24 -710 17z m-245 -129
c-348 -62 -511 -107 -658 -182 -105 -54 -189 -133 -232 -219 -26 -52 -29 -69
-28 -144 0 -57 7 -106 21 -150 12 -35 19 -66 17 -68 -11 -11 -106 95 -126 141
-26 59 -31 163 -11 232 28 97 179 233 328 295 178 74 505 125 809 128 62 0 47
-4 -120 -33z m-300 -146 c-244 -139 -345 -249 -353 -385 -5 -76 15 -149 63
-228 19 -32 33 -61 31 -63 -11 -11 -108 105 -138 164 -86 175 -26 327 172 432
66 35 287 130 305 131 5 0 -31 -23 -80 -51z m1449 -5 c178 -25 167 -33 -47
-33 -457 -2 -579 -40 -978 -306 -112 -75 -208 -139 -213 -143 -24 -14 39 59
101 119 145 140 279 234 423 295 212 89 419 109 714 68z m-162 -130 c-12 -8
-22 -22 -22 -30 0 -11 23 -14 130 -14 128 0 317 -16 354 -30 12 -4 -22 -10
-85 -14 -124 -8 -285 -31 -354 -50 -49 -14 -48 -14 45 -8 175 13 574 2 557
-14 -2 -2 -73 -11 -158 -19 -330 -33 -544 -83 -749 -176 l-85 -39 42 38 c44
39 79 89 70 98 -8 8 -145 -31 -214 -61 l-58 -25 48 45 c26 24 76 62 110 85 49
32 56 40 32 34 -52 -11 -166 -62 -270 -119 l-100 -54 48 43 c58 52 177 123
279 167 82 35 85 49 13 49 -34 0 -37 2 -25 14 26 26 113 54 215 70 144 23 148
23 175 25 l24 1 -22 -16z m-2050 -395 c15 -25 43 -60 63 -77 19 -17 35 -34 35
-37 0 -10 -115 47 -138 68 -60 56 -66 135 -20 252 l23 60 5 -110 c4 -97 8
-116 32 -156z m2631 100 c40 -6 78 -14 85 -18 8 -5 -64 -11 -160 -14 -193 -7
-324 -30 -415 -72 -69 -31 -95 -53 -89 -74 2 -9 7 -38 11 -65 l7 -48 57 6 c31
4 60 4 63 1 3 -3 -14 -45 -38 -93 -71 -143 -88 -276 -59 -445 21 -121 64 -232
151 -392 144 -264 169 -349 168 -570 -1 -150 -3 -169 -37 -300 -58 -221 -81
-257 -292 -449 l-40 -36 70 40 c38 22 73 40 77 40 26 0 -168 -392 -270 -545
-44 -66 -107 -150 -141 -187 -143 -155 -335 -258 -480 -258 -112 1 -190 53
-239 160 -20 43 -26 75 -30 156 l-5 102 44 6 c24 3 58 7 74 9 17 1 -92 1 -241
-2 l-270 -4 -39 34 -39 34 22 -32 c25 -35 58 -60 114 -85 44 -21 53 -50 43
-154 -15 -167 -104 -236 -224 -175 -86 44 -188 175 -280 359 -41 81 -44 102
-16 102 7 0 60 20 117 44 61 27 141 52 194 61 81 15 98 15 194 1 91 -14 134
-14 322 -4 172 10 249 9 377 -1 180 -14 246 -9 292 22 47 32 68 65 79 127 24
124 -23 215 -124 245 -68 20 -79 18 -31 -7 86 -44 128 -111 105 -167 -38 -94
-247 -56 -467 85 -122 78 -193 102 -248 85 l-30 -9 38 -1 c51 -1 85 -17 206
-96 148 -96 237 -136 316 -143 72 -5 84 -22 44 -58 -17 -15 -36 -19 -97 -18
-43 0 -102 6 -132 14 -50 12 -64 23 -160 120 -81 83 -120 114 -172 140 -80 39
-104 37 -180 -15 -29 -19 -57 -35 -61 -35 -5 0 -22 14 -37 30 -26 27 -34 30
-92 30 -36 0 -68 3 -71 6 -12 12 13 43 71 88 121 96 124 100 47 61 -52 -26
-80 -35 -110 -33 l-40 3 -3 64 c-2 35 6 135 18 222 23 176 28 384 10 450 -30
111 -101 185 -209 220 -94 31 -278 37 -395 14 -48 -10 -90 -14 -93 -11 -11 11
-6 430 7 581 19 227 50 351 111 440 42 60 57 63 172 33 56 -14 111 -29 122
-33 11 -4 -5 7 -35 24 -30 18 -68 45 -85 61 l-30 30 75 -1 c44 0 112 -10 164
-23 l88 -23 -48 44 -49 43 88 -45 c48 -25 99 -45 114 -45 17 0 64 29 140 85
63 47 121 89 129 92 24 9 -25 -81 -80 -147 -25 -29 -44 -55 -42 -57 1 -1 119
49 262 113 142 64 275 122 294 130 l35 14 -35 -31 c-19 -16 -82 -62 -140 -101
-127 -86 -141 -98 -72 -64 116 58 424 176 460 176 21 0 -23 -56 -71 -91 -40
-29 -40 -29 -12 -29 40 0 254 45 370 79 55 15 143 49 195 74 102 48 232 92
314 106 75 13 217 13 299 0z m350 -1140 c89 -46 122 -140 122 -344 -1 -139 -1
-141 -42 -250 -85 -228 -109 -267 -256 -415 -79 -80 -105 -113 -109 -138 -5
-37 5 -204 27 -447 8 -93 24 -282 35 -420 l19 -250 -47 -48 c-82 -84 -188
-168 -537 -423 -520 -379 -591 -424 -770 -485 -38 -13 -124 -57 -189 -98 -111
-69 -343 -188 -350 -180 -2 2 -6 16 -9 30 -6 25 -1 29 106 81 119 58 291 161
304 181 4 6 -9 1 -28 -11 -65 -42 -194 -111 -274 -145 -117 -50 -122 -51 -128
-28 -4 17 14 29 127 84 118 57 306 169 306 182 0 2 -29 -13 -65 -35 -150 -92
-370 -189 -388 -171 -13 13 -20 8 93 71 106 59 254 155 272 178 7 8 -26 -10
-72 -41 -47 -30 -136 -80 -199 -111 l-113 -57 -24 22 -24 23 32 19 c86 52 189
121 200 134 7 9 -12 0 -42 -19 -84 -54 -215 -117 -226 -110 -6 4 -13 15 -17
24 -4 13 11 27 66 62 40 25 86 57 102 71 23 20 18 18 -25 -8 -55 -34 -135 -77
-144 -77 -2 0 -8 14 -11 32 -7 29 -4 36 36 71 l44 39 -42 -21 -43 -21 0 34 c0
19 -3 42 -6 51 -5 13 2 12 42 -7 27 -13 51 -25 54 -28 17 -17 288 -25 378 -10
222 35 447 142 695 329 261 197 553 513 646 700 67 133 64 107 46 569 -8 229
-20 476 -26 547 -18 229 16 526 73 639 33 66 92 139 137 170 80 56 193 81 244
55z m-2602 -358 c89 -28 146 -71 172 -129 18 -41 20 -66 20 -187 -1 -260 -67
-530 -159 -642 l-36 -44 64 36 c70 38 99 43 118 20 22 -26 2 -62 -68 -123
-202 -179 -254 -222 -263 -217 -5 4 -9 16 -9 29 0 36 -13 39 -27 5 -11 -28
-15 -30 -29 -18 -29 24 -51 91 -97 295 -60 263 -74 336 -92 479 -16 133 -39
484 -32 491 2 2 46 11 98 19 122 18 255 13 340 -14z m2041 -1110 c34 -54 54
-117 63 -197 l6 -59 -19 34 -19 34 -6 -48 c-4 -26 -7 -69 -7 -95 0 -38 -3 -47
-16 -46 -10 0 -32 -25 -58 -66 -22 -37 -67 -95 -99 -130 -56 -61 -57 -62 -52
-30 4 17 4 32 1 32 -4 0 -50 -36 -103 -80 -53 -44 -101 -80 -106 -80 -9 0 47
75 64 85 5 4 9 10 9 16 0 5 -22 -7 -50 -27 -27 -20 -50 -33 -50 -31 0 3 25 41
56 84 62 87 114 173 167 279 49 97 64 107 130 79 26 -11 22 26 -13 115 -17 41
-30 79 -30 84 0 4 16 -6 35 -23 70 -62 83 -30 35 84 -17 38 -30 71 -30 73 0
15 68 -50 92 -87z m-1567 -926 c22 -230 49 -381 89 -498 19 -54 29 -96 22 -94
-21 6 -96 128 -111 180 -29 102 -47 463 -28 572 9 49 9 49 28 -160z m-96 75
c-14 -103 -13 -358 1 -425 14 -69 47 -139 97 -207 19 -27 31 -48 27 -48 -4 0
-29 14 -55 31 -72 46 -153 139 -195 225 -32 64 -38 88 -42 157 -4 79 16 199
37 220 4 4 11 -29 14 -75 3 -46 10 -94 16 -108 l10 -25 1 30 c1 57 28 162 59
230 17 37 33 66 35 64 2 -2 0 -33 -5 -69z m-399 25 c0 -3 -8 -18 -17 -32 -11
-16 -20 -55 -23 -93 -5 -62 -6 -64 -19 -40 -8 14 -14 44 -14 68 0 33 6 49 28
72 26 28 45 38 45 25z m73 -112 c-11 -30 -18 -72 -17 -111 0 -54 -2 -61 -14
-49 -39 40 -28 172 19 210 31 25 35 8 12 -50z m606 -128 c40 -207 63 -273 122
-351 50 -67 49 -78 -6 -44 -102 63 -165 240 -165 465 0 67 4 105 9 100 5 -6
23 -82 40 -170z m-553 57 c1 -42 9 -86 21 -117 40 -98 39 -93 8 -65 -55 50
-81 155 -55 224 16 43 25 29 26 -42z m896 -58 c15 -35 18 -57 14 -88 -7 -44
-30 -86 -46 -86 -11 0 -14 203 -3 213 11 12 13 9 35 -39z m-120 -58 c24 -47
19 -98 -17 -166 l-23 -45 -6 60 c-3 33 -11 88 -16 121 -6 34 -10 74 -10 89 l0
28 26 -24 c14 -13 35 -42 46 -63z m2062 -291 c-2 -90 -30 -183 -116 -390 -93
-223 -318 -680 -425 -862 -14 -24 -22 -43 -19 -43 15 0 371 618 462 802 l63
128 7 -58 c8 -67 -1 -415 -16 -587 -6 -66 -28 -280 -50 -475 -22 -195 -42
-393 -46 -440 l-6 -85 259 -118 c142 -65 301 -137 353 -160 l95 -42 15 -208
15 -209 -97 -243 c-79 -198 -109 -261 -162 -342 -36 -54 -66 -95 -66 -92 0 3
11 38 25 78 78 231 122 443 135 653 12 201 10 205 -85 249 -63 28 -580 239
-725 295 -126 49 -131 48 -220 -44 -87 -89 -224 -258 -313 -385 -34 -49 -67
-96 -74 -105 -10 -14 -12 -8 -13 38 0 116 51 258 137 378 50 71 230 261 325
343 l56 50 161 -66 c168 -69 197 -77 144 -45 -29 17 -33 25 -33 62 l0 42 -28
-27 c-15 -15 -33 -27 -40 -27 -6 0 -19 26 -28 57 -18 61 -15 61 -57 1 -19 -27
-38 -7 -44 46 -3 25 -7 46 -10 46 -2 0 -17 -16 -34 -35 -17 -19 -37 -35 -43
-35 -16 0 -194 -158 -278 -248 -75 -80 -131 -159 -176 -248 -48 -95 -65 -167
-67 -284 -1 -93 -4 -110 -27 -150 -34 -58 -81 -194 -113 -324 -14 -55 -30
-111 -35 -123 -16 -39 -80 -102 -140 -138 -32 -19 -94 -74 -139 -121 l-80 -85
-243 142 c-274 160 -267 156 -253 142 6 -5 109 -72 230 -148 121 -76 226 -144
234 -151 11 -10 1 -26 -58 -94 -39 -45 -128 -156 -198 -246 -70 -90 -130 -164
-134 -164 -4 0 -41 42 -83 94 l-77 95 -9 238 c-5 131 -12 284 -15 341 -3 72
-2 101 6 97 7 -5 7 -2 0 11 -8 15 -60 1279 -83 2019 l-3 80 85 3 85 3 115 -72
c63 -39 254 -159 425 -267 170 -108 318 -196 330 -196 16 -1 25 14 47 74 56
159 117 459 118 581 0 31 5 49 14 52 7 3 103 84 212 180 333 292 533 511 669
732 67 110 73 117 109 113 l31 -3 -1 -80z m-2785 31 c10 -11 9 -22 -5 -48 -9
-18 -23 -53 -29 -78 l-12 -45 -12 28 c-15 39 -14 65 9 115 20 45 30 51 49 28z
m3028 -77 c76 -28 140 -53 143 -55 2 -3 -45 -3 -105 -2 l-109 3 -98 -940 c-53
-517 -97 -943 -97 -947 -1 -5 -14 -8 -31 -8 -22 0 -30 5 -30 18 0 30 161 1936
166 1960 2 12 8 22 13 22 5 0 71 -23 148 -51z m-3062 -239 c79 -60 121 -82
197 -104 32 -9 66 -26 77 -37 16 -17 65 -167 87 -264 6 -29 6 -29 -23 10 -56
76 -113 99 -288 120 -160 18 -159 17 -153 181 5 118 10 144 28 144 5 0 39 -23
75 -50z m819 -142 c-8 -57 -11 -101 -13 -173 l-1 -60 -53 -28 c-57 -29 -131
-86 -123 -94 6 -6 125 63 154 90 l22 20 0 -50 c0 -43 -4 -53 -25 -67 -13 -9
-40 -16 -59 -16 -28 0 -42 -8 -78 -49 -41 -45 -68 -104 -68 -146 0 -37 -15 -2
-26 58 l-10 62 -54 -83 c-29 -45 -54 -81 -55 -80 -2 2 -6 56 -10 120 l-7 117
149 97 c215 140 219 149 12 28 -173 -101 -169 -99 -169 -71 0 18 11 28 48 46
57 28 272 151 272 157 0 2 -73 -32 -162 -77 -122 -60 -163 -76 -170 -67 -20
33 -7 48 93 99 56 29 154 87 218 130 64 43 117 79 118 79 2 0 0 -19 -3 -42z
m726 28 c0 -2 -43 -29 -96 -61 -101 -60 -300 -206 -369 -270 -22 -21 -33 -33
-25 -27 66 44 318 102 437 101 l78 0 -65 -18 c-188 -51 -516 -197 -657 -293
-45 -31 -84 -54 -87 -51 -3 4 -6 49 -6 102 l0 96 118 86 c164 121 231 163 357
224 83 41 237 97 313 114 1 1 2 -1 2 -3z m-1866 -722 c9 -67 27 -160 41 -208
35 -121 99 -246 126 -246 5 0 62 46 126 102 156 134 301 242 382 283 73 36
178 72 186 63 4 -3 11 -187 16 -408 9 -383 9 -409 -11 -537 -19 -126 -20 -152
-10 -431 16 -474 39 -1048 46 -1166 4 -76 3 -106 -5 -102 -6 4 -155 182 -332
396 -176 215 -323 390 -325 390 -2 0 147 -189 331 -419 l336 -419 6 -151 c3
-83 3 -151 -2 -151 -4 0 -24 5 -45 11 -37 11 -37 12 -43 76 -10 107 -55 160
-127 147 -54 -9 -80 -30 -80 -64 0 -36 7 -37 50 -5 19 14 38 25 42 25 28 0
-19 -95 -53 -105 -52 -17 -317 97 -430 184 -120 93 -194 207 -277 426 -62 163
-119 277 -217 430 l-77 120 6 125 c30 706 98 2072 104 2099 7 33 10 35 107 65
l100 32 6 -221 c4 -121 14 -275 23 -341z m-2046 382 c322 -401 449 -754 527
-1464 13 -125 27 -245 29 -267 3 -22 2 -45 -2 -51 -9 -14 -104 -47 -342 -118
-211 -64 -224 -66 -215 -33 4 12 11 26 16 32 5 5 105 37 222 71 199 58 212 60
219 43 13 -35 38 -23 38 19 0 142 -55 467 -120 712 -109 410 -191 612 -416
1026 -57 105 -104 195 -104 199 0 10 49 -45 148 -169z m1717 61 c-11 -8 -75
-47 -142 -87 l-123 -73 0 -41 c0 -22 -18 -374 -40 -781 -22 -407 -40 -746 -40
-752 0 -8 -13 -13 -30 -13 -27 0 -30 3 -30 33 0 46 71 1572 74 1574 5 5 332
151 341 152 5 1 1 -5 -10 -12z m615 -43 c174 -46 203 -59 278 -129 95 -88 84
-96 -54 -37 -103 45 -174 65 -298 87 -49 8 -95 20 -103 26 -13 12 -18 70 -6
82 12 13 47 7 183 -29z m-990 -256 c0 -24 -9 -158 -19 -298 -11 -140 -25 -354
-31 -475 -6 -121 -15 -258 -18 -304 l-7 -84 -114 246 c-63 136 -116 245 -118
243 -2 -2 41 -152 96 -332 140 -461 173 -576 164 -584 -5 -4 -84 -15 -178 -24
-93 -9 -189 -20 -212 -23 -40 -5 -42 -4 -48 23 -4 16 -36 146 -72 289 -35 143
-86 355 -113 470 -26 116 -65 264 -85 330 -21 66 -40 128 -42 137 -8 27 64 72
297 184 118 58 276 136 350 173 74 38 138 70 143 70 4 1 7 -18 7 -41z m-960
-1009 c0 -12 -10 -23 -26 -29 -38 -15 -46 -13 -34 9 26 50 60 61 60 20z m18
-104 c-7 -7 -142 -44 -146 -40 -3 2 4 19 15 37 14 24 32 37 68 50 l50 16 8
-30 c5 -17 7 -31 5 -33z m7 -55 c0 -22 -9 -27 -99 -53 -54 -15 -100 -26 -102
-24 -3 2 1 16 7 31 10 20 28 31 88 50 91 29 106 29 106 -4z m4403 -44 c225
-85 737 -298 756 -314 17 -16 18 -29 13 -167 -9 -221 -47 -404 -142 -685 -25
-74 -45 -140 -45 -148 0 -19 -87 -127 -147 -183 -114 -106 -199 -148 -300
-149 l-73 0 26 58 c98 217 272 635 302 722 63 187 48 304 -50 402 -114 115
-298 131 -427 38 -97 -71 -141 -152 -407 -750 l-211 -475 -39 -6 c-21 -3 -32
-7 -24 -8 495 -51 858 -52 1044 -5 86 22 124 45 186 110 93 97 149 105 240 33
59 -47 85 -85 94 -139 5 -33 -4 -58 -69 -195 -71 -149 -95 -178 -95 -117 0 83
-64 212 -121 246 -44 26 -44 19 -1 -28 22 -24 50 -62 61 -85 23 -43 48 -178
39 -203 -4 -8 -88 -43 -201 -81 -195 -67 -246 -77 -325 -61 -26 5 -30 9 -22
24 7 13 6 20 -6 24 -29 11 -42 6 -48 -19 -6 -25 -9 -26 -64 -20 -186 18 -930
44 -1390 48 l-244 2 144 190 c275 365 396 506 574 666 75 67 134 114 130 103
-10 -32 -96 -466 -96 -486 0 -10 6 -18 14 -18 9 0 25 61 55 213 59 297 138
628 172 720 54 150 151 304 333 532 89 110 224 255 238 255 4 0 61 -20 126
-44z m-4388 -36 c0 -28 -4 -30 -72 -50 -40 -12 -102 -30 -138 -40 -35 -11 -66
-18 -68 -16 -5 6 26 64 39 72 20 12 224 71 232 67 4 -2 7 -17 7 -33z m12 -80
c4 -29 3 -31 -61 -50 -36 -10 -113 -33 -170 -50 -57 -16 -106 -28 -109 -26 -2
3 4 20 15 38 17 30 30 36 158 74 77 23 145 43 151 43 7 1 14 -13 16 -29z m8
-78 c0 -27 -2 -28 -192 -84 -106 -30 -194 -54 -196 -53 -2 2 3 16 11 31 13 25
33 33 188 80 96 28 177 52 182 53 4 0 7 -12 7 -27z m10 -76 c0 -22 -8 -27 -82
-50 -223 -67 -339 -98 -344 -94 -2 3 0 16 5 30 8 21 26 30 123 58 62 18 147
43 188 56 99 30 110 30 110 0z m4597 -154 c58 -30 111 -85 139 -146 55 -119
30 -209 -227 -801 l-117 -270 -133 -6 c-201 -10 -569 -10 -569 -1 0 5 98 229
218 498 234 527 294 637 379 698 67 47 99 56 188 53 58 -3 92 -10 122 -25z
m-1923 -1427 c67 -84 68 -86 52 -110 -19 -29 -15 -28 -70 -14 -42 10 -44 12
-50 56 -6 48 -8 153 -3 153 2 0 34 -38 71 -85z m2395 -322 c1 -71 0 -73 -23
-73 -14 0 -27 4 -31 10 -3 5 -12 7 -19 4 -13 -5 -347 23 -353 30 -4 4 20 8
197 35 135 21 169 36 196 86 l19 36 6 -28 c4 -15 7 -61 8 -100z m192 -55 c49
-22 88 -43 86 -45 -6 -6 -211 19 -220 27 -12 11 11 60 29 60 8 0 56 -19 105
-42z m-4796 -68 c-165 -22 -327 -44 -359 -49 -33 -6 -62 -9 -64 -7 -7 8 130
45 223 61 113 19 270 32 400 33 90 0 71 -3 -200 -38z m-881 -1667 c13 -47 49
-264 44 -269 -4 -3 -95 24 -205 59 -109 36 -238 78 -288 93 -49 15 -83 29 -75
31 44 11 488 101 502 102 9 1 19 -7 22 -16z m7079 -35 l258 -52 -293 -96
c-161 -53 -294 -96 -295 -95 -7 4 54 295 62 295 5 0 126 -23 268 -52z"/>
<path d="M6311 10537 c-41 -61 -55 -117 -42 -178 14 -63 37 -119 50 -119 20 0
20 19 1 75 -27 79 -26 147 5 213 13 28 22 52 20 52 -2 0 -17 -19 -34 -43z"/>
<path d="M5811 9934 c-24 -9 -79 -40 -122 -69 -90 -62 -122 -72 -236 -81 -46
-4 -83 -10 -83 -14 0 -3 18 -17 41 -29 l41 -23 -41 -42 c-36 -37 -41 -47 -40
-86 0 -25 4 -53 8 -64 6 -15 10 -9 20 25 22 79 32 97 70 123 58 40 241 85 241
59 0 -4 -22 -29 -50 -55 -60 -57 -64 -84 -19 -122 35 -30 49 -33 49 -10 0 9
-9 18 -20 21 -29 8 -24 35 13 69 39 37 92 74 105 74 5 0 12 -23 14 -51 7 -73
38 -101 115 -105 l58 -3 -53 7 c-69 10 -102 42 -109 106 -5 37 -3 46 9 46 18
0 35 -18 57 -63 22 -43 65 -50 83 -12 8 18 18 25 32 23 31 -4 33 -44 4 -76
l-23 -26 28 18 c16 10 58 20 98 23 l70 6 -23 25 c-35 37 -101 80 -207 135
l-96 49 130 -6 c153 -7 243 -24 315 -61 29 -14 54 -25 56 -23 5 5 -123 113
-183 154 -98 68 -251 93 -352 58z"/>
<path d="M6114 9478 l-29 -33 33 29 c30 28 37 36 29 36 -2 0 -16 -15 -33 -32z"/>
<path d="M5620 9483 c0 -5 13 -17 28 -27 l27 -19 -24 26 c-26 28 -31 32 -31
20z"/>
<path d="M5990 9419 c-37 -12 -44 -16 -20 -13 34 6 105 33 85 32 -5 0 -35 -8
-65 -19z"/>
<path d="M6542 9068 c-76 -93 -192 -165 -272 -168 -25 -1 -25 -1 -3 -10 26
-11 114 10 171 39 51 27 115 96 146 159 15 28 24 52 22 52 -3 0 -31 -33 -64
-72z"/>
<path d="M5439 9003 c5 -10 38 -45 72 -78 l62 -60 -69 78 c-71 80 -81 89 -65
60z"/>
<path d="M5302 8806 c-87 -60 -87 -62 3 -23 44 19 80 40 80 47 0 25 -20 19
-83 -24z"/>
<path d="M7219 9987 c-77 -52 -119 -163 -125 -332 l-3 -110 14 90 c37 225 105
345 197 345 67 0 105 -40 145 -150 l24 -65 -6 50 c-7 71 -52 153 -95 176 -48
26 -109 24 -151 -4z"/>
<path d="M7130 9665 c0 -2 23 -16 51 -30 115 -59 185 -154 174 -237 -6 -42 -6
-42 9 -18 50 81 -10 199 -129 254 -52 24 -105 40 -105 31z"/>
<path d="M7080 9413 c43 -49 63 -98 56 -138 -4 -18 -25 -59 -48 -91 -41 -57
-34 -58 25 -5 79 71 75 170 -9 239 -52 43 -63 40 -24 -5z"/>
<path d="M5459 7003 c-13 -16 -12 -17 4 -4 9 7 17 15 17 17 0 8 -8 3 -21 -13z"/>
<path d="M4623 9681 c-49 -8 -89 -41 -110 -89 -24 -58 -7 -76 92 -96 30 -6 30
-6 9 11 -12 10 -34 28 -50 39 l-29 22 21 28 c11 16 39 35 61 43 36 13 43 12
79 -5 31 -15 40 -25 42 -51 l3 -31 -41 5 c-40 6 -42 5 -38 -18 5 -36 64 -52
156 -44 44 4 72 11 72 18 0 8 -15 11 -46 8 -48 -3 -64 7 -64 41 0 13 11 18 48
20 l47 3 0 40 c0 32 -5 42 -25 52 -27 13 -154 15 -227 4z"/>
<path d="M4480 9462 c0 -10 8 -26 18 -34 20 -18 85 -38 122 -37 19 0 13 6 -28
24 -29 13 -66 34 -82 45 -29 21 -30 21 -30 2z"/>
<path d="M4882 9456 c-35 -25 -42 -43 -14 -38 30 6 81 63 55 62 -5 -1 -23 -12
-41 -24z"/>
<path d="M7170 5860 c-6 -11 -8 -20 -6 -20 3 0 10 9 16 20 6 11 8 20 6 20 -3
0 -10 -9 -16 -20z"/>
<path d="M7350 5190 c8 -5 20 -10 25 -10 6 0 3 5 -5 10 -8 5 -19 10 -25 10 -5
0 -3 -5 5 -10z"/>
<path d="M7423 5160 c133 -74 712 -319 724 -306 2 1 -32 19 -74 39 -43 19
-136 62 -208 95 -107 49 -407 171 -465 189 -8 2 2 -5 23 -17z"/>
<path d="M5684 6654 c-18 -14 -18 -15 4 -4 12 6 22 13 22 15 0 8 -5 6 -26 -11z"/>
<path d="M5218 5654 c-77 -41 -75 -169 2 -209 38 -20 95 -19 131 2 31 18 59
67 59 103 0 36 -28 85 -59 103 -35 21 -96 21 -133 1z m82 -14 c0 -5 -6 -10
-14 -10 -28 0 -66 -59 -66 -102 0 -40 0 -41 -20 -23 -29 27 -27 89 5 120 25
25 95 36 95 15z"/>
<path d="M5213 4465 c-92 -40 -92 -171 0 -218 50 -26 100 -16 144 28 27 27 33
41 33 74 0 56 -22 95 -64 115 -41 19 -70 20 -113 1z m71 -14 c3 -5 -7 -14 -23
-21 -33 -13 -61 -62 -61 -107 l-1 -28 -19 24 c-33 39 -18 100 31 127 28 15 65
18 73 5z"/>
<path d="M4770 4296 c0 -2 8 -10 18 -17 15 -13 16 -12 3 4 -13 16 -21 21 -21
13z"/>
<path d="M4825 4230 c10 -11 20 -20 23 -20 3 0 -3 9 -13 20 -10 11 -20 20 -23
20 -3 0 3 -9 13 -20z"/>
<path d="M7136 4787 c-76 -92 -94 -118 -60 -87 27 25 68 63 92 85 l43 40 -19
-45 c-210 -482 -321 -744 -319 -747 3 -3 164 338 308 656 46 101 89 185 95
188 6 2 121 -38 255 -90 134 -52 296 -114 360 -138 l117 -44 6 -44 c3 -24 6
-76 6 -116 0 -70 -2 -76 -91 -261 -154 -318 -309 -648 -300 -638 5 5 101 191
214 414 l206 406 7 -66 c13 -118 14 -48 1 140 l-12 185 -65 32 c-36 18 -126
53 -200 77 -74 25 -187 67 -250 94 -120 52 -240 93 -269 91 -9 0 -65 -60 -125
-132z"/>
<path d="M6800 4218 c0 -3 -15 -62 -34 -129 -40 -147 -54 -219 -26 -134 31 92
72 257 65 263 -3 3 -5 3 -5 0z"/>
<path d="M7523 4493 c-18 -7 -16 -48 2 -63 30 -25 61 30 33 58 -13 13 -16 13
-35 5z"/>
<path d="M9795 6023 c-153 -20 -314 -64 -470 -129 -82 -35 -84 -36 -73 -60 7
-14 16 -23 22 -20 281 125 491 176 720 176 102 0 107 -1 115 -23 25 -65 119
-729 122 -857 1 -30 4 -46 6 -36 7 29 -15 383 -37 596 -29 268 -24 270 30 10
62 -296 105 -394 272 -632 37 -53 68 -107 68 -119 0 -12 -16 -71 -35 -132 -37
-113 -55 -216 -53 -302 0 -35 3 -22 9 40 11 112 23 165 65 284 19 51 34 103
34 114 0 11 -36 74 -80 139 -135 200 -198 347 -235 548 -56 302 -77 363 -139
391 -34 15 -64 18 -176 17 -74 0 -148 -3 -165 -5z"/>
<path d="M10472 4420 c0 -14 2 -19 5 -12 2 6 2 18 0 25 -3 6 -5 1 -5 -13z"/>
<path d="M2592 4360 c0 -19 2 -27 5 -17 2 9 2 25 0 35 -3 9 -5 1 -5 -18z"/>
<path d="M2586 4219 c10 -198 48 -315 114 -350 69 -36 312 -149 321 -149 48 0
-94 80 -241 135 -87 33 -124 65 -115 98 16 51 62 145 93 187 l33 45 -41 -45
c-23 -25 -55 -71 -71 -102 -16 -32 -31 -58 -34 -58 -11 0 -36 116 -50 225
l-14 120 5 -106z"/>
<path d="M2546 3904 c-4 -14 -5 -28 -3 -31 3 -2 8 8 11 23 4 14 5 28 3 31 -3
2 -8 -8 -11 -23z"/>
<path d="M2526 3829 c-12 -59 -6 -123 13 -155 35 -57 374 -340 393 -328 18 11
3 25 -114 112 -141 104 -227 175 -258 214 l-21 27 22 43 c12 24 30 55 41 71
33 47 11 30 -33 -25 l-42 -53 7 63 c7 65 3 84 -8 31z"/>
<path d="M3140 3705 c0 -17 7 -41 16 -53 15 -22 92 -67 100 -59 3 2 -16 21
-42 42 -25 21 -52 52 -60 69 l-13 31 -1 -30z"/>
<path d="M2672 3490 c0 -14 2 -19 5 -12 2 6 2 18 0 25 -3 6 -5 1 -5 -13z"/>
<path d="M3111 3329 c-1 -30 30 -62 78 -78 50 -16 48 -8 -7 28 -27 17 -54 41
-60 54 -11 22 -11 22 -11 -4z"/>
<path d="M8670 3265 c46 -18 64 -17 25 0 -16 8 -37 14 -45 14 -8 0 1 -7 20
-14z"/>
<path d="M8800 3170 c8 -5 20 -10 25 -10 6 0 3 5 -5 10 -8 5 -19 10 -25 10 -5
0 -3 -5 5 -10z"/>
<path d="M8850 3100 c8 -5 20 -10 25 -10 6 0 3 5 -5 10 -8 5 -19 10 -25 10 -5
0 -3 -5 5 -10z"/>
<path d="M3120 3081 c0 -47 72 -102 133 -101 15 1 5 10 -35 30 -31 16 -65 41
-77 56 -12 15 -21 21 -21 15z"/>
</g>
</svg>
