<?xml version="1.0" standalone="yes"?>
<svg width="55" height="46">
<path style="fill:#ffffff; stroke:none;" d="M0 0L0 46L55 46L55 0L0 0z"/>
<path style="fill:#3a3a3a; stroke:none;" d="M16 25L17 25C17.1974 16.6016 21.3428 10.8925 30 10C20.7774 3.69217 16.019 18.3776 16 25z"/>
<path style="fill:#bcbcbc; stroke:none;" d="M30.6667 9.33333L31.3333 9.66667L30.6667 9.33333z"/>
<path style="fill:#9c9c9c; stroke:none;" d="M25 10L25 11L30 11L25 10z"/>
<path style="fill:#3f3f3f; stroke:none;" d="M30 10L30 11L38 20L39 20C38.0087 14.5309 35.5783 11.1357 30 10z"/>
<path style="fill:#ffffff; stroke:none;" d="M17 29L31 29L31 31L15 31L15 33L40 33C38.2272 27.3185 38.9289 17.7666 34.5671 13.4336C23.078 2.02028 17.023 20.6537 17 29z"/>
<path style="fill:#a4a4a4; stroke:none;" d="M17 18L17 21L18 21L17 18z"/>
<path style="fill:#a2a2a2; stroke:none;" d="M37 18L37 21L38 21L37 18z"/>
<path style="fill:#181818; stroke:none;" d="M38 20L38 25L39 25L38 20z"/>
<path style="fill:#bebebe; stroke:none;" d="M15 23L15 26L16 26L15 23z"/>
<path style="fill:#9e9e9e; stroke:none;" d="M39.3333 24.6667L39.6667 25.3333L39.3333 24.6667z"/>
<path style="fill:#676767; stroke:none;" d="M16 25L16 30L17 30L16 25z"/>
<path style="fill:#666666; stroke:none;" d="M38 25L41 34L42 34L38 25z"/>
<path style="fill:#404040; stroke:none;" d="M14 29L13 33L14 33L16 29L14 29z"/>
<path style="fill:#9f9f9f; stroke:none;" d="M17 29L17 30L31 30L17 29z"/>
<path style="fill:#c9c9c9; stroke:none;" d="M32 29L32 30L36 30L32 29z"/>
<path style="fill:#dfdfdf; stroke:none;" d="M15 30L15 31L31 31L15 30z"/>
<path style="fill:#a4a4a4; stroke:none;" d="M14.3333 31.6667L14.6667 32.3333L14.3333 31.6667z"/>
<path style="fill:#aeaeae; stroke:none;" d="M40.3333 31.6667L40.6667 32.3333L40.3333 31.6667z"/>
<path style="fill:#7f7f7f; stroke:none;" d="M13 33L13 34L31 37L40 35L40 33L13 33z"/>
<path style="fill:#1e1e1e; stroke:none;" d="M40 33L41 34L40 33z"/>
<path style="fill:#aeaeae; stroke:none;" d="M23 35L26 38L23 35z"/>
<path style="fill:#ffffff; stroke:none;" d="M25 35L25 36L30 37L30 35L25 35z"/>
<path style="fill:#828282; stroke:none;" d="M26 37L26 38L30 38L26 37z"/>
</svg>
