<?xml version="1.0" standalone="yes"?>
<svg width="32" height="34">
<path style="fill:#ffffff; stroke:none;" d="M0 0L0 34L32 34L32 0L0 0z"/>
<path style="fill:#999999; stroke:none;" d="M13 3L13 4L19 4L13 3z"/>
<path style="fill:#7d7d7d; stroke:none;" d="M12 4L12 7L13 7L12 4z"/>
<path style="fill:#000000; stroke:none;" d="M13 4L6 8C3.85982 12.7304 3.85981 21.2696 6 26L13 30L19 30C20.7389 26.7572 22.344 26.0564 26 26L27 8C23.0232 8.06079 20.9308 7.59557 19 4L13 4z"/>
<path style="fill:#7e7e7e; stroke:none;" d="M19 4L19 7L20 7L19 4z"/>
<path style="fill:#616161; stroke:none;" d="M20 7L21 8L20 7z"/>
<path style="fill:#7b7b7b; stroke:none;" d="M5 8L6 9L5 8z"/>
<path style="fill:#757575; stroke:none;" d="M8.66667 8.33333L9.33333 8.66667L8.66667 8.33333z"/>
<path style="fill:#6f6f6f; stroke:none;" d="M22.6667 8.33333L23.3333 8.66667L22.6667 8.33333z"/>
<path style="fill:#666666; stroke:none;" d="M4 10L5 11L4 10z"/>
<path style="fill:#474747; stroke:none;" d="M14 11L14 12L17 12L14 11z"/>
<path style="fill:#8d8d8d; stroke:none;" d="M3.33333 12.6667L3.66667 13.3333L3.33333 12.6667z"/>
<path style="fill:#ffffff; stroke:none;" d="M13.3187 13.0432C8.36862 16.1692 13.4566 24.2335 18.5671 20.8164C23.6259 17.4339 18.3679 9.85459 13.3187 13.0432z"/>
<path style="fill:#a0a0a0; stroke:none;" d="M18 12L19 13L18 12z"/>
<path style="fill:#898989; stroke:none;" d="M28.3333 12.6667L28.6667 13.3333L28.3333 12.6667z"/>
<path style="fill:#878787; stroke:none;" d="M4 14L5 15L4 14M27 14L28 15L27 14z"/>
<path style="fill:#616161; stroke:none;" d="M5 15L5 19L6 19L5 15z"/>
<path style="fill:#484848; stroke:none;" d="M10 15L10 18L11 18L10 15z"/>
<path style="fill:#454545; stroke:none;" d="M21 15L21 18L22 18L21 15z"/>
<path style="fill:#606060; stroke:none;" d="M26 15L26 19L27 19L26 15z"/>
<path style="fill:#878787; stroke:none;" d="M4 19L5 20L4 19z"/>
<path style="fill:#a0a0a0; stroke:none;" d="M11 19L12 20L11 19z"/>
<path style="fill:#9f9f9f; stroke:none;" d="M20 19L21 20L20 19z"/>
<path style="fill:#878787; stroke:none;" d="M27 19L28 20L27 19z"/>
<path style="fill:#4d4d4d; stroke:none;" d="M3.33333 20.6667L3.66667 21.3333L3.33333 20.6667z"/>
<path style="fill:#4e4e4e; stroke:none;" d="M28.3333 20.6667L28.6667 21.3333L28.3333 20.6667z"/>
<path style="fill:#9f9f9f; stroke:none;" d="M18 21L19 22L18 21z"/>
<path style="fill:#484848; stroke:none;" d="M14 22L14 23L17 23L14 22z"/>
<path style="fill:#656565; stroke:none;" d="M4 23L5 24L4 23z"/>
<path style="fill:#646464; stroke:none;" d="M27 23L28 24L27 23z"/>
<path style="fill:#727272; stroke:none;" d="M5 25L6 26L5 25z"/>
<path style="fill:#767676; stroke:none;" d="M8.66667 25.3333L9.33333 25.6667L8.66667 25.3333z"/>
<path style="fill:#6f6f6f; stroke:none;" d="M22.6667 25.3333L23.3333 25.6667L22.6667 25.3333z"/>
<path style="fill:#797979; stroke:none;" d="M26 25L27 26L26 25z"/>
<path style="fill:#616161; stroke:none;" d="M20 26L21 27L20 26z"/>
<path style="fill:#7e7e7e; stroke:none;" d="M12 27L12 30L13 30L12 27z"/>
<path style="fill:#7f7f7f; stroke:none;" d="M19 27L19 30L20 30L19 27z"/>
<path style="fill:#999999; stroke:none;" d="M13 30L13 31L19 31L13 30z"/>
</svg>
